Coordinates
version=1
nRows=21
nColumns=22
inDegrees=yes

Units are S.I. units (second, meters, Newtons, ...)
If the header above contains a line with 'inDegrees', this indicates whether rotational values are in degrees (yes) or radians (no).

endheader
time	pelvis_tilt	pelvis_list	pelvis_rotation	pelvis_tx	pelvis_ty	pelvis_tz	hip_flexion_r	hip_adduction_r	hip_rotation_r	knee_angle_r	ankle_angle_r	subtalar_angle_r	hip_flexion_l	hip_adduction_l	hip_rotation_l	knee_angle_l	ankle_angle_l	subtalar_angle_l	lumbar_extension	lumbar_bending	lumbar_rotation
      1.72000000	      3.48843848	      0.92398116	     46.02865357	      0.58936234	      0.92448864	      0.63767805	     23.49498498	     -3.60169269	      3.22227288	    -49.92493770	     -2.42170575	      9.05663792	      0.17139131	      5.54634603	    -14.61685622	    -15.92488615	     10.54367315	    -11.33984753	     -9.39945494	     -4.54308874	     -3.05973678
      1.73000000	      3.49336768	      1.03389132	     47.35697245	      0.59337603	      0.92428561	      0.63062537	     23.54484949	     -3.60357033	      3.03713230	    -46.98769075	     -2.47382056	      9.15450169	     -0.66268163	      5.66427416	    -13.39088311	    -15.54085687	     10.79096256	    -11.06848476	     -9.49688482	     -4.61815550	     -3.48740969
      1.74000000	      3.53857710	      1.17110869	     48.63993019	      0.59750433	      0.92406225	      0.62354096	     23.41503449	     -3.56595242	      2.90794917	    -43.82053867	     -2.56131998	      9.33909900	     -1.55903024	      5.73345605	    -12.19493719	    -15.16687642	     11.00350332	    -10.83346350	     -9.64144467	     -4.68639081	     -3.84921797
      1.75000000	      3.50664466	      1.26292249	     49.92870080	      0.60165250	      0.92358428	      0.61640739	     23.27936776	     -3.56175153	      2.78641587	    -40.48619692	     -2.73583530	      9.60905478	     -2.34423874	      5.79841340	    -10.96688981	    -14.85106485	     11.22567235	    -10.76424146	     -9.68463034	     -4.78675500	     -4.24384054
      1.76000000	      3.40242997	      1.30868196	     51.21946941	      0.60581698	      0.92285354	      0.60923312	     23.13887813	     -3.59640400	      2.66981920	    -36.99797014	     -2.99259341	      9.91689524	     -3.00789602	      5.85782629	     -9.72141273	    -14.61980326	     11.46177574	    -10.78101144	     -9.63265360	     -4.92176766	     -4.66224506
      1.77000000	      3.35587395	      1.41079485	     52.42878920	      0.61013955	      0.92213149	      0.60198399	     22.79261164	     -3.60245937	      2.64346376	    -33.32185060	     -3.18402053	     10.47863908	     -3.77709723	      5.88539226	     -8.54025463	    -14.38117263	     11.68429820	    -10.85153685	     -9.65796981	     -5.05838584	     -4.96921777
      1.78000000	      3.23267749	      1.46611653	     53.63483677	      0.61444188	      0.92113138	      0.59468381	     22.46481580	     -3.67262744	      2.58154211	    -29.54772523	     -3.39755948	     11.09429275	     -4.39805248	      5.91968491	     -7.35507674	    -14.26970168	     11.95166672	    -10.93541053	     -9.58978144	     -5.23216149	     -5.28171288
      1.79000000	      3.08098512	      1.50815891	     54.80804520	      0.61878720	      0.91994676	      0.58728125	     22.09487499	     -3.78649785	      2.46591486	    -25.69796342	     -3.59653530	     11.81510073	     -4.96606662	      5.95281020	     -6.20606789	    -14.22656642	     12.26846808	    -11.01997339	     -9.48176984	     -5.42425033	     -5.57951517
      1.80000000	      2.91060213	      1.54643754	     55.93780510	      0.62316992	      0.91859247	      0.57980970	     21.69071645	     -3.93946385	      2.24912694	    -21.83220798	     -3.77501395	     12.64457384	     -5.48461070	      5.98695341	     -5.08825851	    -14.27165365	     12.63662522	    -11.09481458	     -9.35601975	     -5.63477975	     -5.82405518
      1.81000000	      2.73280408	      1.57543696	     57.04002333	      0.62758051	      0.91707197	      0.57222582	     21.26810772	     -4.11983369	      1.85958813	    -18.02299925	     -3.92539730	     13.55549234	     -5.96579547	      6.01115425	     -4.00090617	    -14.38909624	     13.07104179	    -11.15085207	     -9.21241975	     -5.84562258	     -6.03566866
      1.82000000	      2.55646700	      1.60230454	     58.11931726	      0.63205152	      0.91540791	      0.56456081	     20.84575708	     -4.30615908	      1.25559285	    -14.36887897	     -4.02887940	     14.51514818	     -6.41294299	      6.01708765	     -2.97239628	    -14.59412451	     13.56940440	    -11.18015585	     -9.06642146	     -6.05730320	     -6.24482519
      1.83000000	      2.39948754	      1.63859107	     59.15354731	      0.63661427	      0.91363978	      0.55686593	     20.44660936	     -4.46115074	      0.47892088	    -10.98715237	     -4.11586023	     15.55467780	     -6.85599584	      6.00035117	     -1.96297207	    -14.86727727	     14.12499478	    -11.17885074	     -8.94490279	     -6.26454283	     -6.38497303
      1.84000000	      2.26507578	      1.65770198	     60.17062933	      0.64126795	      0.91175698	      0.54910513	     20.12128512	     -4.56209202	     -0.46254813	     -7.99694776	     -4.12118102	     16.53297516	     -7.26950331	      5.93460001	     -1.03565748	    -15.21047454	     14.71981061	    -11.14672629	     -8.81922892	     -6.44201872	     -6.53851374
      1.85000000	      2.16326272	      1.71066217	     61.10957300	      0.64605428	      0.90985192	      0.54136952	     19.86295290	     -4.60450436	     -1.35228860	     -5.50571637	     -4.12075006	     17.57159069	     -7.72298408	      5.85093964	     -0.16683215	    -15.58374256	     15.36158626	    -11.07816150	     -8.75203284	     -6.61915577	     -6.60064168
      1.86000000	      2.09924360	      1.75999947	     61.98856573	      0.65094935	      0.90790756	      0.53363986	     19.72273039	     -4.58211017	     -2.09246850	     -3.60572157	     -4.06287273	     18.48594482	     -8.17588318	      5.71915672	      0.60671222	    -15.99848255	     15.99911092	    -10.98430111	     -8.70730787	     -6.76193773	     -6.60295182
      1.87000000	      2.07587529	      1.79047358	     62.81136035	      0.65591102	      0.90593459	      0.52591739	     19.72288019	     -4.50619539	     -2.59170442	     -2.34982690	     -3.95603510	     19.09834174	     -8.61159664	      5.53147141	      1.27987852	    -16.45427593	     16.62509893	    -10.89052339	     -8.67409051	     -6.85014758	     -6.58808806
      1.88000000	      2.09465515	      1.86358667	     63.53199043	      0.66093470	      0.90401831	      0.51823156	     19.82235867	     -4.40988373	     -2.70668584	     -1.77375502	     -3.85179716	     19.53584739	     -9.10998013	      5.33133799	      1.84259409	    -16.90675856	     17.28447225	    -10.78199752	     -8.71560653	     -6.91543311	     -6.48766161
      1.89000000	      2.12228524	      1.94560787	     64.14147035	      0.66602889	      0.90211503	      0.51056732	     20.03700963	     -4.30992953	     -2.27470367	     -1.81863874	     -3.69231275	     19.63518157	     -9.61458239	      5.13630514	      2.24336479	    -17.36886200	     17.85098281	    -10.71494341	     -8.77411577	     -6.96614149	     -6.31333516
      1.90000000	      2.24240972	      2.04754875	     64.72822322	      0.67109943	      0.90032518	      0.50286121	     20.29224581	     -4.15104788	     -1.57995438	     -2.44661966	     -3.58548123	     19.64096815	    -10.16985647	      4.86160809	      2.59464142	    -17.85780542	     18.41205416	    -10.63438780	     -8.91426482	     -6.91598715	     -6.15489806
      1.91000000	      2.43460062	      2.14961551	     65.21443571	      0.67630850	      0.89859363	      0.49509229	     20.59419665	     -3.89469466	     -0.49094180	     -3.56188594	     -3.44574068	     19.39766769	    -10.75641870	      4.52207685	      2.72951621	    -18.36181898	     18.92922491	    -10.50686598	     -9.07516427	     -6.78095822	     -5.92409326
      1.92000000	      2.61862077	      2.24667639	     65.65035067	      0.68159982	      0.89689774	      0.48729151	     20.94876278	     -3.60479692	      0.89607231	     -5.03683092	     -3.39066825	     18.84485860	    -11.32103343	      4.19259687	      2.76253009	    -18.89388715	     19.38676058	    -10.38824872	     -9.22583024	     -6.64990120	     -5.68176594
